<svg height="512" viewBox="0 0 60 58" width="512" xmlns="http://www.w3.org/2000/svg"><g id="Page-1" fill="none" fill-rule="evenodd"><g id="090---Alien-Abduction" fill-rule="nonzero"><path id="Shape" d="m6 58c-.54609622.0000699-.99126246-.4379737-1-.984.04367908-.828054-.21147333-1.6442578-.719-2.3-.3738849-.3996557-.36056863-1.0246324.03-1.408.38916218-.382722 1.01413253-.3800435 1.4.006.14428308.1501983.27418353.3135782.388.488.34375709-.5388397.74621742-1.0378905 1.2-1.488.39237889-.3789722 1.01608478-.3735524 1.40181858.0121814.38573379.3857338.39115363 1.0094397.01218142 1.4018186-.94977629.8503273-1.55849358 2.0165913-1.713 3.282-.00548403.5483755-.45159704.9900274-1 .99z" fill="#24a55f"/><path id="Shape" d="m36.854 43.962c-6.545 3.68-3.666 9.038.646 9.038 3.443 0 6.005-3.41 3.264-6.809z" fill="#f27b76"/><path id="Shape" d="m49 49c-.5522847 0-1-.4477153-1-1v-6c0-2.209139-1.790861-4-4-4h-3c-.5522847 0-1-.4477153-1-1s.4477153-1 1-1h3c3.3123376.0033074 5.9966926 2.6876624 6 6v6c0 .5522847-.4477153 1-1 1z" fill="#3f5c6c"/><path id="Shape" d="m19.52 32.49s0 .01-.01 0c-1.0924313-.7326177-2.4438611-.9687546-3.72-.65-.2237028.0339534-.4238476.1577628-.5541083.3427707s-.179345.4151762-.1358917.6372293c.3060037 1.415102 1.0684244 2.6904878 2.17 3.63z" fill="#c8cbc8"/><path id="Shape" d="m45 40v17h-4v-6c-1.4449135-.4885416-2.5367788-1.6861932-2.89-3.17-.01 0-.01.01-.02.01-.5050168.3673796-1.0522545.6728927-1.63.91-1.7406844.697605-3.586589 1.0965367-5.46 1.18-.62.05-1.29.07-2 .07v7h-4v-7h-1c-.3415766.0021256-.6806042-.0588994-1-.18-1.201836-.41463-2.0061167-1.5486659-2-2.82v-4.33c-.8389585.1868125-1.7164289.0846171-2.49-.29-.4452433.4793967-.9531627.8964961-1.51 1.24-.4416055.2500537-1.0004907.1296784-1.3-.28l-1.13-1.45c-.2864624-.3898477-.2527745-.9288546.08-1.28 1.1189805-.8285335 1.9623113-1.9750452 2.42-3.29 0 0 .93-5.32 3.93-5.32 1.0279631-.0112708 2.0178906.3883 2.75 1.11.7285279-.6230025 1.6346875-1.0008606 2.59-1.08.3922585-.0464301.761978.1930474.88.57.3618939 1.1200491.2832193 2.3359288-.22 3.4h14c2.209139 0 4 1.790861 4 4z" fill="#e3e7e8"/><g fill="#67b0c3"><path id="Shape" d="m1 48c-.37017038-.0004208-.70982703-.2052939-.88287129-.5325277-.17304426-.3272339-.15116484-.7232906.05687129-1.0294723l19-28c.1983046-.3014843.5436568-.4727449.9036731-.4481328.3600164.0246122.6788483.2412791.8342783.5669461.1554301.325667.1233468.7098141-.0839514 1.0051867l-19 28c-.18632694.2742315-.4964573.438286-.828.438z"/><path id="Shape" d="m4.309 50.246c-.37001116-.0003018-.70961464-.2048913-.88283461-.5318519-.17321996-.3269605-.15174184-.722847.05583461-1.0291481l4.239-6.247c.31389137-.4472537.92866323-.5597496 1.38059545-.2526325.45193222.3071172.57367783.9201244.27340455 1.3766325l-4.238 6.246c-.18632694.2742315-.4964573.438286-.828.438z"/><path id="Shape" d="m19 28.6c-.3726743-.0002069-.714315-.2076321-.8864214-.5381856-.1721063-.3305534-.1461211-.7293871.0674214-1.0348144l6-8.6c.2010796-.3011708.5492693-.4701001.910277-.4416339s.6784182.2498794.8298103.5788433c.1513922.328964.1131078.7140711-.1000873 1.0067906l-6 8.6c-.1869411.2687728-.4936076.4290163-.821.429z"/><path id="Shape" d="m55.691 50.246c-.3315427.000286-.6416731-.1637685-.828-.438l-4.238-6.246c-.3002733-.4565081-.1785277-1.0695153.2734045-1.3766325.4519323-.3071171 1.0667041-.1946212 1.3805955.2526325l4.239 6.247c.2075765.3063011.2290546.7021876.0558346 1.0291481-.17322.3269606-.5128234.5315501-.8828346.5318519z"/><path id="Shape" d="m41 28.6c-.3272078.0002442-.6338372-.1596064-.821-.428l-6-8.6c-.3022543-.4527072-.1868982-1.0640175.25955-1.3754423.4464482-.3114249 1.0599842-.2085612 1.38045.2314423l6 8.6c.2129731.3054048.2386366.7038429.0666032 1.0340461-.1720333.3302033-.5132735.5374873-.8856032.5379539z"/><path id="Shape" d="m59 48c-.3315427.000286-.6416731-.1637685-.828-.438l-19-28c-.2072982-.2953726-.2393815-.6795197-.0839514-1.0051867.15543-.325667.4742619-.5423339.8342783-.5669461.3600163-.0246121.7053685.1466485.9036731.4481328l19 28c.2080361.3061817.2299155.7022384.0568713 1.0294723-.1730443.3272338-.5127009.5321069-.8828713.5325277z"/></g><path id="Shape" d="m59 58h-58c-.55228475 0-1-.4477153-1-1s.44771525-1 1-1h58c.5522847 0 1 .4477153 1 1s-.4477153 1-1 1z" fill="#4fb16f"/><path id="Shape" d="m25 48v2h-1c-.3415766.0021256-.6806042-.0588994-1-.18v-1.82c0-.5522847.4477153-1 1-1s1 .4477153 1 1z" fill="#c8cbc8"/><path id="Shape" d="m31 48v1.93c-.62.05-1.29.07-2 .07v-2c0-.5522847.4477153-1 1-1s1 .4477153 1 1z" fill="#c8cbc8"/><path id="Shape" d="m38.09 47.79c0 .02.01.03 0 .05-.5050168.3673796-1.0522545.6728927-1.63.91-.1670407-.13825-.2831736-.3282857-.33-.54-.0876796-.3939447-.1312809-.7964179-.13-1.2v-1.84c0-.5522847.4477153-1 1-1s1 .4477153 1 1v1.84c.0014239.2625066.0316039.5240671.09.78z" fill="#c8cbc8"/><path id="Shape" d="m25.47 28c-.3368715-.0008468-.6506772-.171248-.834835-.4533277-.1841578-.2820798-.2139151-.637924-.079165-.9466723l3.529-8c.2291046-.4943162.8117538-.7142651 1.3103625-.4946593s.7296642.7979405.5196375 1.3006593l-3.529 8c-.1607814.3619084-.5199853.5948419-.916.594z" fill="#67b0c3"/><path id="Shape" d="m14 54c-.137802-.0001281-.2740534-.0290815-.4-.085-.5052615-.2226464-.7344614-.812657-.512-1.318l1.765-4c.2291046-.4943162.8117538-.7142651 1.3103625-.4946593s.7296642.7979405.5196375 1.3006593l-1.765 4c-.160171.3637473-.5205511.5981122-.918.597z" fill="#67b0c3"/><path id="Shape" d="m34.231 27c-.3904409.0003957-.7454054-.2264847-.909-.581l-3.23-7c-.2314073-.5014745-.0124745-1.0955927.489-1.327.5014746-.2314073 1.0955927-.0124745 1.327.489l3.231 7c.1110638.2409396.1218308.5161388.0299307.7650192s-.278934.4510409-.5199307.5619808c-.1309269.0608716-.2736147.0922765-.418.092z" fill="#67b0c3"/><path id="Shape" d="m37 33c-.3904409.0003957-.7454054-.2264847-.909-.581l-1-2.167c-.1496943-.3243972-.1149537-.7040134.0911353-.9958511.2060891-.2918376.5522167-.4515595.9080001-.419.3557833.0325595.6671703.2524539.8168646.5768511l1 2.167c.1428115.3094765.1181616.6703804-.065402.9575654-.1835637.287185-.5007597.4610985-.841598.4614346z" fill="#67b0c3"/><path id="Shape" d="m38.0000001 36-.0000001 3.05c.0002567.844677-.464092 1.6210348-1.2084092 2.0203735-.7443171.3993387-1.6479499.3569261-2.3515908-.1103735-.7663691-.6152469-1.7700399-.8505397-2.73-.64-.6979973.228385-1.4190004.3792927-2.15.45-.9628187.0015892-1.8674904-.460567-2.4304884-1.2416276s-.7154256-1.7854436-.4095116-2.6983724l.28-.83z" fill="#3f5c6c"/><path id="Shape" d="m41 11-11 2-8.06-1.46-2.94-.54c.0051713-5.7853859 4.4908982-10.57800809 10.2632972-10.96547049 5.7723989-.38746239 10.8583932 3.76267441 11.6367028 9.49547049.0688066.4869403.1022274.9782275.1 1.47z" fill="#67b0c3"/><path id="Shape" d="m41 11-11 2-8.06-1.46c1.596408-3.59412833 4.9889693-6.06358808 8.8997733-6.47818281 3.9108041-.41459473 7.7457259 1.28866032 10.0602267 4.46818281.0688066.4869403.1022274.9782275.1 1.47z" fill="#2f9fc3"/><path id="Shape" d="m27 11v-4c0-1.65685425 1.3431458-3 3-3s3 1.34314575 3 3v4z" fill="#3f5c6c"/><path id="Shape" d="m44 15-1.5 3.743c-.3033953.7582318-1.0373221 1.2558294-1.854 1.257h-21.292c-.8166779-.0011706-1.5506047-.4987682-1.854-1.257l-1.5-3.743 14-2z" fill="#e9931f"/><rect id="Rectangle-path" fill="#e7bb19" height="4" rx="2" width="38" x="11" y="11"/></g></g></svg>