<?xml version="1.0" encoding="iso-8859-1"?>
<!-- Generator: Adobe Illustrator 19.0.0, SVG Export Plug-In . SVG Version: 6.00 Build 0)  -->
<svg version="1.1" id="Capa_1" xmlns="http://www.w3.org/2000/svg" xmlns:xlink="http://www.w3.org/1999/xlink" x="0px" y="0px"
	 viewBox="0 0 512 512" style="enable-background:new 0 0 512 512;" xml:space="preserve">
<polygon style="fill:#D1D3D4;" points="32.978,381.205 10,502 130.796,479.023 "/>
<polygon style="fill:#6D6FAB;" points="20.192,448.419 10,502 63.581,491.808 "/>
<path style="fill:#FC5271;" d="M481.742,128.077c27.012-27.012,27.012-70.806,0-97.818l0,0c-27.012-27.012-70.806-27.012-97.818,0
	L481.742,128.077z"/>
<rect x="9.201" y="185.469" transform="matrix(-0.7071 0.7071 -0.7071 -0.7071 619.3869 252.7178)" style="fill:#F9AE18;" width="496.305" height="138.339"/>
<path d="M169.516,360.947l-0.112,0.112c-3.905,3.905-3.905,10.237,0,14.143c1.953,1.953,4.512,2.929,7.071,2.929
	s5.118-0.976,7.071-2.929l0.112-0.112c3.905-3.905,3.905-10.237,0-14.143C179.752,357.042,173.422,357.042,169.516,360.947z"/>
<path d="M319.152,169.862c2.56,0,5.118-0.976,7.071-2.929l0.112-0.112c3.905-3.905,3.905-10.237,0-14.143
	c-3.906-3.905-10.236-3.905-14.143,0l-0.112,0.112c-3.905,3.905-3.905,10.237,0,14.143
	C314.034,168.886,316.592,169.862,319.152,169.862z"/>
<path d="M488.813,135.148C503.765,120.195,512,100.314,512,79.168s-8.235-41.027-23.188-55.98C473.86,8.235,453.979,0,432.832,0
	c-21.146,0-41.026,8.235-55.979,23.188L25.907,374.133c-1.475,1.475-2.391,3.297-2.752,5.203c0,0,0,0-0.001-0.001L0.176,500.132
	c-0.618,3.252,0.412,6.599,2.753,8.94C4.823,510.964,7.373,512,10,512c0.621,0,1.247-0.058,1.869-0.176l120.795-22.978
	c0-0.001,0-0.003,0-0.004c1.957-0.373,3.773-1.32,5.202-2.748L488.813,135.148z M64.997,480.67L31.04,446.713
	c-0.094-0.094-0.196-0.176-0.293-0.265l8.523-44.808l71.09,71.091l-44.831,8.528C65.359,481.058,65.186,480.859,64.997,480.67z
	 M474.67,37.33C485.846,48.506,492,63.363,492,79.168c0,12.417-3.814,24.241-10.863,34.163l-24.924-24.924
	c-0.002-0.002-0.004-0.005-0.006-0.007s-0.004-0.004-0.007-0.006l-32.786-32.786c-0.001-0.001-0.002-0.002-0.003-0.003
	s-0.002-0.002-0.003-0.003L398.67,30.863C408.592,23.814,420.416,20,432.832,20C448.637,20,463.495,26.154,474.67,37.33z
	 M383.924,44.401l18.273,18.274L339.7,125.172c-3.905,3.905-3.905,10.237,0,14.142c1.953,1.953,4.512,2.929,7.071,2.929
	c2.559,0,5.118-0.977,7.071-2.929l62.497-62.497l18.653,18.653l-237.97,237.97c-3.905,3.905-3.905,10.237,0,14.143
	c1.953,1.953,4.512,2.929,7.071,2.929s5.118-0.976,7.071-2.929l237.97-237.97l18.463,18.463L130.795,464.881l-18.464-18.464
	l43.208-43.207c3.905-3.905,3.905-10.237,0-14.142s-10.235-3.905-14.143,0l-43.208,43.207l-18.653-18.653l218.68-218.681
	c3.905-3.905,3.905-10.237,0-14.143c-3.906-3.905-10.236-3.905-14.143,0l-218.68,218.68L47.12,381.205L383.924,44.401z
	 M26.231,470.188l15.582,15.582l-19.242,3.66L26.231,470.188z"/>
<path d="M311.989,492h-0.012c-5.522,0-9.994,4.477-9.994,10s4.483,10,10.006,10s10-4.477,10-10S317.511,492,311.989,492z"/>
<path d="M502,492H346.988c-5.522,0-10,4.477-10,10s4.478,10,10,10H502c5.522,0,10-4.477,10-10S507.523,492,502,492z"/>
<path d="M276.489,492H154.988c-5.522,0-10,4.477-10,10s4.478,10,10,10h121.501c5.522,0,10-4.477,10-10S282.011,492,276.489,492z"/>
<g>
</g>
<g>
</g>
<g>
</g>
<g>
</g>
<g>
</g>
<g>
</g>
<g>
</g>
<g>
</g>
<g>
</g>
<g>
</g>
<g>
</g>
<g>
</g>
<g>
</g>
<g>
</g>
<g>
</g>
</svg>
